<svg preserveAspectRatio="none" width="100%" height="100%" overflow="visible" style="display: block;" viewBox="0 0 19.9973 19.9973" fill="none" xmlns="http://www.w3.org/2000/svg">
<g id="Icon" clip-path="url(#clip0_6_715)">
<path id="Vector" d="M13.3316 17.4977V15.8312C13.3316 14.9473 12.9804 14.0996 12.3554 13.4745C11.7303 12.8495 10.8826 12.4983 9.99867 12.4983H4.99933C4.1154 12.4983 3.26766 12.8495 2.64262 13.4745C2.01759 14.0996 1.66644 14.9473 1.66644 15.8312V17.4977" stroke="var(--stroke-0, #009966)" stroke-width="1.66644" stroke-linecap="round" stroke-linejoin="round"/>
<path id="Vector_2" d="M7.499 9.16544C9.3397 9.16544 10.8319 7.67326 10.8319 5.83256C10.8319 3.99185 9.3397 2.49967 7.499 2.49967C5.6583 2.49967 4.16611 3.99185 4.16611 5.83256C4.16611 7.67326 5.6583 9.16544 7.499 9.16544Z" stroke="var(--stroke-0, #009966)" stroke-width="1.66644" stroke-linecap="round" stroke-linejoin="round"/>
<path id="Vector_3" d="M15.8312 6.66578V11.6651" stroke="var(--stroke-0, #009966)" stroke-width="1.66644" stroke-linecap="round" stroke-linejoin="round"/>
<path id="Vector_4" d="M18.3309 9.16544H13.3316" stroke="var(--stroke-0, #009966)" stroke-width="1.66644" stroke-linecap="round" stroke-linejoin="round"/>
</g>
<defs>
<clipPath id="clip0_6_715">
<rect width="19.9973" height="19.9973" fill="white"/>
</clipPath>
</defs>
</svg>
